<mxfile host="app.diagrams.net" modified="2022-06-23T08:19:42.713Z" agent="5.0 (Windows NT 10.0; Win64; x64) AppleWebKit/537.36 (KHTML, like Gecko) Chrome/102.0.5005.63 Safari/537.36" etag="QQyckYW81XsuRN9VGq1J" version="19.0.0" type="github" pages="4">
  <diagram id="o-nclo2A7PGb1wbm2hFL" name="Overall">
    <mxGraphModel dx="1887" dy="1011" grid="1" gridSize="10" guides="1" tooltips="1" connect="1" arrows="1" fold="1" page="1" pageScale="1" pageWidth="2000" pageHeight="1500" math="0" shadow="0">
      <root>
        <mxCell id="0" />
        <mxCell id="1" parent="0" />
        <mxCell id="0Zu6eakZ6mqwubN0CjJy-2" value="DASH (DEFRA)" style="rounded=0;whiteSpace=wrap;html=1;" parent="1" vertex="1">
          <mxGeometry x="800" y="130" width="120" height="60" as="geometry" />
        </mxCell>
        <mxCell id="0Zu6eakZ6mqwubN0CjJy-3" value="MEDIN (BODC)" style="rounded=1;whiteSpace=wrap;html=1;" parent="1" vertex="1">
          <mxGeometry x="560" y="610" width="120" height="60" as="geometry" />
        </mxCell>
        <mxCell id="0Zu6eakZ6mqwubN0CjJy-4" value="DASSH (MBA)" style="rounded=1;whiteSpace=wrap;html=1;" parent="1" vertex="1">
          <mxGeometry x="430" y="720" width="120" height="60" as="geometry" />
        </mxCell>
        <mxCell id="OE16NLAfgjfBer2Upggu-6" style="edgeStyle=orthogonalEdgeStyle;rounded=0;orthogonalLoop=1;jettySize=auto;html=1;exitX=0.5;exitY=1;exitDx=0;exitDy=0;entryX=0.5;entryY=0;entryDx=0;entryDy=0;" parent="1" source="0Zu6eakZ6mqwubN0CjJy-5" target="OE16NLAfgjfBer2Upggu-3" edge="1">
          <mxGeometry relative="1" as="geometry" />
        </mxCell>
        <mxCell id="mvTpFMJ7Uwd1hCq87du0-20" style="edgeStyle=orthogonalEdgeStyle;rounded=0;orthogonalLoop=1;jettySize=auto;html=1;exitX=0.25;exitY=1;exitDx=0;exitDy=0;entryX=0.5;entryY=0;entryDx=0;entryDy=0;" parent="1" source="0Zu6eakZ6mqwubN0CjJy-5" target="mvTpFMJ7Uwd1hCq87du0-19" edge="1">
          <mxGeometry relative="1" as="geometry">
            <Array as="points">
              <mxPoint x="590" y="880" />
              <mxPoint x="460" y="880" />
              <mxPoint x="460" y="1030" />
              <mxPoint x="330" y="1030" />
            </Array>
          </mxGeometry>
        </mxCell>
        <mxCell id="0Zu6eakZ6mqwubN0CjJy-5" value="MERMAN (BODC)" style="rounded=1;whiteSpace=wrap;html=1;" parent="1" vertex="1">
          <mxGeometry x="560" y="720" width="120" height="60" as="geometry" />
        </mxCell>
        <mxCell id="0Zu6eakZ6mqwubN0CjJy-6" value="" style="endArrow=classic;html=1;rounded=0;exitX=0.5;exitY=1;exitDx=0;exitDy=0;" parent="1" source="0Zu6eakZ6mqwubN0CjJy-3" target="0Zu6eakZ6mqwubN0CjJy-5" edge="1">
          <mxGeometry width="50" height="50" relative="1" as="geometry">
            <mxPoint x="780" y="540" as="sourcePoint" />
            <mxPoint x="830" y="490" as="targetPoint" />
          </mxGeometry>
        </mxCell>
        <mxCell id="0Zu6eakZ6mqwubN0CjJy-7" value="" style="endArrow=classic;html=1;rounded=0;exitX=0;exitY=1;exitDx=0;exitDy=0;entryX=0.5;entryY=0;entryDx=0;entryDy=0;" parent="1" source="0Zu6eakZ6mqwubN0CjJy-3" target="0Zu6eakZ6mqwubN0CjJy-4" edge="1">
          <mxGeometry width="50" height="50" relative="1" as="geometry">
            <mxPoint x="780" y="540" as="sourcePoint" />
            <mxPoint x="830" y="490" as="targetPoint" />
          </mxGeometry>
        </mxCell>
        <mxCell id="0Zu6eakZ6mqwubN0CjJy-8" value="Data Projects" style="rounded=1;whiteSpace=wrap;html=1;" parent="1" vertex="1">
          <mxGeometry x="2.5" y="10" width="80" height="40" as="geometry" />
        </mxCell>
        <mxCell id="0Zu6eakZ6mqwubN0CjJy-9" value="DAC (BODC)" style="rounded=1;whiteSpace=wrap;html=1;" parent="1" vertex="1">
          <mxGeometry x="450" y="470" width="120" height="60" as="geometry" />
        </mxCell>
        <mxCell id="0Zu6eakZ6mqwubN0CjJy-10" value="" style="endArrow=none;dashed=1;html=1;rounded=0;exitX=0;exitY=0;exitDx=0;exitDy=0;entryX=0.5;entryY=1;entryDx=0;entryDy=0;" parent="1" source="0Zu6eakZ6mqwubN0CjJy-3" target="0Zu6eakZ6mqwubN0CjJy-9" edge="1">
          <mxGeometry width="50" height="50" relative="1" as="geometry">
            <mxPoint x="780" y="730" as="sourcePoint" />
            <mxPoint x="830" y="680" as="targetPoint" />
          </mxGeometry>
        </mxCell>
        <mxCell id="0Zu6eakZ6mqwubN0CjJy-11" value="UKDMOS" style="rounded=1;whiteSpace=wrap;html=1;" parent="1" vertex="1">
          <mxGeometry x="714" y="610" width="120" height="60" as="geometry" />
        </mxCell>
        <mxCell id="0Zu6eakZ6mqwubN0CjJy-12" value="" style="endArrow=classic;html=1;rounded=0;exitX=1;exitY=0.5;exitDx=0;exitDy=0;entryX=0;entryY=0.5;entryDx=0;entryDy=0;" parent="1" source="0Zu6eakZ6mqwubN0CjJy-3" target="0Zu6eakZ6mqwubN0CjJy-11" edge="1">
          <mxGeometry width="50" height="50" relative="1" as="geometry">
            <mxPoint x="850" y="590" as="sourcePoint" />
            <mxPoint x="900" y="540" as="targetPoint" />
          </mxGeometry>
        </mxCell>
        <mxCell id="OE16NLAfgjfBer2Upggu-1" value="BODC" style="rhombus;whiteSpace=wrap;html=1;" parent="1" vertex="1">
          <mxGeometry x="820" y="260" width="80" height="80" as="geometry" />
        </mxCell>
        <mxCell id="mvTpFMJ7Uwd1hCq87du0-18" style="edgeStyle=orthogonalEdgeStyle;rounded=0;orthogonalLoop=1;jettySize=auto;html=1;exitX=0.5;exitY=1;exitDx=0;exitDy=0;entryX=0.5;entryY=0;entryDx=0;entryDy=0;" parent="1" source="OE16NLAfgjfBer2Upggu-3" target="mvTpFMJ7Uwd1hCq87du0-17" edge="1">
          <mxGeometry relative="1" as="geometry" />
        </mxCell>
        <mxCell id="OE16NLAfgjfBer2Upggu-3" value="ICES" style="shape=hexagon;perimeter=hexagonPerimeter2;whiteSpace=wrap;html=1;fixedSize=1;fillColor=#f8cecc;strokeColor=#b85450;" parent="1" vertex="1">
          <mxGeometry x="560" y="920" width="120" height="80" as="geometry" />
        </mxCell>
        <mxCell id="OE16NLAfgjfBer2Upggu-4" value="Reporting" style="shape=hexagon;perimeter=hexagonPerimeter2;whiteSpace=wrap;html=1;fixedSize=1;fillColor=#f8cecc;strokeColor=#b85450;" parent="1" vertex="1">
          <mxGeometry x="2.5" y="60" width="75" height="50" as="geometry" />
        </mxCell>
        <mxCell id="OE16NLAfgjfBer2Upggu-7" value="UK Marine Biodiversity Monitoring Programme" style="rounded=0;whiteSpace=wrap;html=1;" parent="1" vertex="1">
          <mxGeometry x="1130" y="100" width="120" height="60" as="geometry" />
        </mxCell>
        <mxCell id="OE16NLAfgjfBer2Upggu-8" value="Marine Strategy Framework Directive" style="rounded=1;whiteSpace=wrap;html=1;fillColor=#e1d5e7;strokeColor=#9673a6;" parent="1" vertex="1">
          <mxGeometry x="660" y="1070" width="120" height="60" as="geometry" />
        </mxCell>
        <mxCell id="OE16NLAfgjfBer2Upggu-9" value="Legislative" style="rounded=1;whiteSpace=wrap;html=1;fillColor=#e1d5e7;strokeColor=#9673a6;" parent="1" vertex="1">
          <mxGeometry x="2.5" y="120" width="80" height="40" as="geometry" />
        </mxCell>
        <mxCell id="OE16NLAfgjfBer2Upggu-11" value="OSPAR Common Indicators" style="rounded=0;whiteSpace=wrap;html=1;fillColor=#fff2cc;strokeColor=#d6b656;" parent="1" vertex="1">
          <mxGeometry x="660" y="1150" width="120" height="60" as="geometry" />
        </mxCell>
        <mxCell id="mvTpFMJ7Uwd1hCq87du0-13" style="edgeStyle=orthogonalEdgeStyle;rounded=0;orthogonalLoop=1;jettySize=auto;html=1;exitX=0.5;exitY=0;exitDx=0;exitDy=0;entryX=0.5;entryY=1;entryDx=0;entryDy=0;" parent="1" source="OE16NLAfgjfBer2Upggu-12" target="mvTpFMJ7Uwd1hCq87du0-4" edge="1">
          <mxGeometry relative="1" as="geometry" />
        </mxCell>
        <mxCell id="OE16NLAfgjfBer2Upggu-12" value="Marine Strategy Regulations 2010" style="rounded=1;whiteSpace=wrap;html=1;fillColor=#e1d5e7;strokeColor=#9673a6;" parent="1" vertex="1">
          <mxGeometry x="780" y="1070" width="120" height="60" as="geometry" />
        </mxCell>
        <mxCell id="OE16NLAfgjfBer2Upggu-13" value="OSPAR CEMP" style="rounded=0;whiteSpace=wrap;html=1;" parent="1" vertex="1">
          <mxGeometry x="1130" y="170" width="120" height="60" as="geometry" />
        </mxCell>
        <mxCell id="OE16NLAfgjfBer2Upggu-14" value="ODIMS" style="rhombus;whiteSpace=wrap;html=1;" parent="1" vertex="1">
          <mxGeometry x="680" y="1220" width="80" height="80" as="geometry" />
        </mxCell>
        <mxCell id="OE16NLAfgjfBer2Upggu-15" value="JCDP Hub" style="rounded=1;whiteSpace=wrap;html=1;" parent="1" vertex="1">
          <mxGeometry x="880" y="610" width="120" height="60" as="geometry" />
        </mxCell>
        <mxCell id="OE16NLAfgjfBer2Upggu-16" value="OSPAR Expert Groups (linked to descriptors)" style="ellipse;whiteSpace=wrap;html=1;fillColor=#ffe6cc;strokeColor=#d79b00;" parent="1" vertex="1">
          <mxGeometry x="1260" y="400" width="120" height="80" as="geometry" />
        </mxCell>
        <mxCell id="mvTpFMJ7Uwd1hCq87du0-1" value="Clean Seas Environmental Monitoring Programme" style="rounded=0;whiteSpace=wrap;html=1;" parent="1" vertex="1">
          <mxGeometry x="280" y="930" width="120" height="60" as="geometry" />
        </mxCell>
        <mxCell id="mvTpFMJ7Uwd1hCq87du0-2" value="" style="endArrow=none;dashed=1;html=1;dashPattern=1 3;strokeWidth=2;rounded=0;exitX=0;exitY=1;exitDx=0;exitDy=0;entryX=0.5;entryY=0;entryDx=0;entryDy=0;" parent="1" source="0Zu6eakZ6mqwubN0CjJy-5" target="mvTpFMJ7Uwd1hCq87du0-1" edge="1">
          <mxGeometry width="50" height="50" relative="1" as="geometry">
            <mxPoint x="890" y="780" as="sourcePoint" />
            <mxPoint x="940" y="730" as="targetPoint" />
          </mxGeometry>
        </mxCell>
        <mxCell id="mvTpFMJ7Uwd1hCq87du0-10" style="edgeStyle=orthogonalEdgeStyle;rounded=0;orthogonalLoop=1;jettySize=auto;html=1;exitX=0.5;exitY=1;exitDx=0;exitDy=0;" parent="1" source="mvTpFMJ7Uwd1hCq87du0-3" target="mvTpFMJ7Uwd1hCq87du0-7" edge="1">
          <mxGeometry relative="1" as="geometry" />
        </mxCell>
        <mxCell id="mvTpFMJ7Uwd1hCq87du0-12" style="edgeStyle=orthogonalEdgeStyle;rounded=0;orthogonalLoop=1;jettySize=auto;html=1;exitX=0.25;exitY=1;exitDx=0;exitDy=0;entryX=0.5;entryY=0;entryDx=0;entryDy=0;" parent="1" source="mvTpFMJ7Uwd1hCq87du0-3" target="mvTpFMJ7Uwd1hCq87du0-4" edge="1">
          <mxGeometry relative="1" as="geometry" />
        </mxCell>
        <mxCell id="mvTpFMJ7Uwd1hCq87du0-3" value="CEFMAT (CEFAS)" style="rounded=1;whiteSpace=wrap;html=1;" parent="1" vertex="1">
          <mxGeometry x="1060" y="720" width="120" height="60" as="geometry" />
        </mxCell>
        <mxCell id="mvTpFMJ7Uwd1hCq87du0-4" value="UKMS Reporting" style="shape=hexagon;perimeter=hexagonPerimeter2;whiteSpace=wrap;html=1;fixedSize=1;fillColor=#f8cecc;strokeColor=#b85450;" parent="1" vertex="1">
          <mxGeometry x="900" y="920" width="120" height="80" as="geometry" />
        </mxCell>
        <mxCell id="mvTpFMJ7Uwd1hCq87du0-7" value="MOAT" style="shape=parallelogram;perimeter=parallelogramPerimeter;whiteSpace=wrap;html=1;fixedSize=1;fillColor=#d5e8d4;strokeColor=#82b366;" parent="1" vertex="1">
          <mxGeometry x="1150" y="920" width="120" height="60" as="geometry" />
        </mxCell>
        <mxCell id="mvTpFMJ7Uwd1hCq87du0-8" value="Tool" style="shape=parallelogram;perimeter=parallelogramPerimeter;whiteSpace=wrap;html=1;fixedSize=1;fillColor=#d5e8d4;strokeColor=#82b366;" parent="1" vertex="1">
          <mxGeometry y="180" width="80" height="40" as="geometry" />
        </mxCell>
        <mxCell id="mvTpFMJ7Uwd1hCq87du0-14" value="Annual&lt;br&gt;Submission (meets OSPAR JAMP)" style="text;html=1;align=center;verticalAlign=middle;whiteSpace=wrap;rounded=0;labelBackgroundColor=#FFFFFF;" parent="1" vertex="1">
          <mxGeometry x="624" y="840" width="116" height="30" as="geometry" />
        </mxCell>
        <mxCell id="mvTpFMJ7Uwd1hCq87du0-17" value="OSPAR Annual Assessment" style="shape=hexagon;perimeter=hexagonPerimeter2;whiteSpace=wrap;html=1;fixedSize=1;fillColor=#f8cecc;strokeColor=#b85450;" parent="1" vertex="1">
          <mxGeometry x="470" y="1070" width="120" height="80" as="geometry" />
        </mxCell>
        <mxCell id="mvTpFMJ7Uwd1hCq87du0-19" value="EMODNET&lt;br&gt;&amp;nbsp;Chemistry" style="shape=hexagon;perimeter=hexagonPerimeter2;whiteSpace=wrap;html=1;fixedSize=1;fillColor=#f8cecc;strokeColor=#b85450;" parent="1" vertex="1">
          <mxGeometry x="270" y="1090" width="120" height="80" as="geometry" />
        </mxCell>
        <mxCell id="mvTpFMJ7Uwd1hCq87du0-21" value="future MSFD requirements" style="text;html=1;align=center;verticalAlign=middle;whiteSpace=wrap;rounded=0;labelBackgroundColor=#FFFFFF;" parent="1" vertex="1">
          <mxGeometry x="340" y="1040" width="116" height="30" as="geometry" />
        </mxCell>
        <mxCell id="i9hWkBnJeYsdSTf6s3AG-1" value="Marine Recorder (JNCC)" style="rounded=1;whiteSpace=wrap;html=1;" parent="1" vertex="1">
          <mxGeometry x="1350" y="670" width="120" height="60" as="geometry" />
        </mxCell>
        <mxCell id="i9hWkBnJeYsdSTf6s3AG-2" value="OneBenthic" style="rounded=1;whiteSpace=wrap;html=1;" parent="1" vertex="1">
          <mxGeometry x="1140" y="540" width="120" height="60" as="geometry" />
        </mxCell>
        <mxCell id="i9hWkBnJeYsdSTf6s3AG-3" value="POSEIDON" style="rounded=1;whiteSpace=wrap;html=1;" parent="1" vertex="1">
          <mxGeometry x="1140" y="600" width="120" height="60" as="geometry" />
        </mxCell>
      </root>
    </mxGraphModel>
  </diagram>
  <diagram id="jWhwjcEbeuda6rwsUYhd" name="Governance">
    <mxGraphModel dx="1597" dy="855" grid="1" gridSize="10" guides="1" tooltips="1" connect="1" arrows="1" fold="1" page="1" pageScale="1" pageWidth="2000" pageHeight="1500" math="0" shadow="0">
      <root>
        <mxCell id="0" />
        <mxCell id="1" parent="0" />
        <mxCell id="4Zr720OiWrzR1Jy28b7X-1" value="MSCC (Defunct)" style="rounded=1;whiteSpace=wrap;html=1;fillColor=#f5f5f5;fontColor=#333333;strokeColor=#666666;" vertex="1" parent="1">
          <mxGeometry x="520" y="120" width="120" height="60" as="geometry" />
        </mxCell>
        <mxCell id="4Zr720OiWrzR1Jy28b7X-2" value="Chief Scientists XWH Group (incl. DA)" style="rounded=1;whiteSpace=wrap;html=1;" vertex="1" parent="1">
          <mxGeometry x="640" y="120" width="120" height="60" as="geometry" />
        </mxCell>
        <mxCell id="4Zr720OiWrzR1Jy28b7X-3" value="MARG" style="rounded=1;whiteSpace=wrap;html=1;" vertex="1" parent="1">
          <mxGeometry x="640" y="300" width="120" height="60" as="geometry" />
        </mxCell>
        <mxCell id="4Zr720OiWrzR1Jy28b7X-4" value="UKMMAS" style="rounded=1;whiteSpace=wrap;html=1;" vertex="1" parent="1">
          <mxGeometry x="640" y="450" width="120" height="60" as="geometry" />
        </mxCell>
        <mxCell id="4Zr720OiWrzR1Jy28b7X-5" value="MEDIN" style="rounded=1;whiteSpace=wrap;html=1;" vertex="1" parent="1">
          <mxGeometry x="1150" y="480" width="120" height="60" as="geometry" />
        </mxCell>
        <mxCell id="4Zr720OiWrzR1Jy28b7X-6" value="HBDSEG" style="rounded=1;whiteSpace=wrap;html=1;" vertex="1" parent="1">
          <mxGeometry x="445" y="550" width="120" height="60" as="geometry" />
        </mxCell>
        <mxCell id="4Zr720OiWrzR1Jy28b7X-7" value="CSSEG" style="rounded=1;whiteSpace=wrap;html=1;" vertex="1" parent="1">
          <mxGeometry x="575" y="550" width="120" height="60" as="geometry" />
        </mxCell>
        <mxCell id="4Zr720OiWrzR1Jy28b7X-9" value="PSEG" style="rounded=1;whiteSpace=wrap;html=1;" vertex="1" parent="1">
          <mxGeometry x="705" y="550" width="120" height="60" as="geometry" />
        </mxCell>
        <mxCell id="4Zr720OiWrzR1Jy28b7X-10" value="OPEG" style="rounded=1;whiteSpace=wrap;html=1;" vertex="1" parent="1">
          <mxGeometry x="835" y="550" width="120" height="60" as="geometry" />
        </mxCell>
        <mxCell id="4Zr720OiWrzR1Jy28b7X-11" value="" style="endArrow=classic;html=1;rounded=0;exitX=0.5;exitY=1;exitDx=0;exitDy=0;entryX=0.5;entryY=0;entryDx=0;entryDy=0;" edge="1" parent="1" source="4Zr720OiWrzR1Jy28b7X-4" target="4Zr720OiWrzR1Jy28b7X-6">
          <mxGeometry width="50" height="50" relative="1" as="geometry">
            <mxPoint x="660" y="510" as="sourcePoint" />
            <mxPoint x="440" y="510" as="targetPoint" />
            <Array as="points">
              <mxPoint x="700" y="530" />
              <mxPoint x="505" y="530" />
            </Array>
          </mxGeometry>
        </mxCell>
        <mxCell id="4Zr720OiWrzR1Jy28b7X-12" value="" style="endArrow=classic;html=1;rounded=0;exitX=0.5;exitY=1;exitDx=0;exitDy=0;entryX=0.5;entryY=0;entryDx=0;entryDy=0;" edge="1" parent="1" source="4Zr720OiWrzR1Jy28b7X-4" target="4Zr720OiWrzR1Jy28b7X-7">
          <mxGeometry width="50" height="50" relative="1" as="geometry">
            <mxPoint x="660" y="510" as="sourcePoint" />
            <mxPoint x="710" y="460" as="targetPoint" />
            <Array as="points">
              <mxPoint x="700" y="530" />
              <mxPoint x="635" y="530" />
            </Array>
          </mxGeometry>
        </mxCell>
        <mxCell id="4Zr720OiWrzR1Jy28b7X-13" value="" style="endArrow=classic;html=1;rounded=0;exitX=0.5;exitY=1;exitDx=0;exitDy=0;entryX=0.5;entryY=0;entryDx=0;entryDy=0;" edge="1" parent="1" source="4Zr720OiWrzR1Jy28b7X-4" target="4Zr720OiWrzR1Jy28b7X-9">
          <mxGeometry width="50" height="50" relative="1" as="geometry">
            <mxPoint x="660" y="510" as="sourcePoint" />
            <mxPoint x="710" y="460" as="targetPoint" />
            <Array as="points">
              <mxPoint x="700" y="530" />
              <mxPoint x="765" y="530" />
            </Array>
          </mxGeometry>
        </mxCell>
        <mxCell id="4Zr720OiWrzR1Jy28b7X-14" value="" style="endArrow=classic;html=1;rounded=0;exitX=0.5;exitY=1;exitDx=0;exitDy=0;entryX=0.5;entryY=0;entryDx=0;entryDy=0;" edge="1" parent="1" source="4Zr720OiWrzR1Jy28b7X-4" target="4Zr720OiWrzR1Jy28b7X-10">
          <mxGeometry width="50" height="50" relative="1" as="geometry">
            <mxPoint x="660" y="510" as="sourcePoint" />
            <mxPoint x="710" y="460" as="targetPoint" />
            <Array as="points">
              <mxPoint x="700" y="530" />
              <mxPoint x="895" y="530" />
            </Array>
          </mxGeometry>
        </mxCell>
      </root>
    </mxGraphModel>
  </diagram>
  <diagram id="osVWkLXQ54Bbje3mIiif" name="Monitoring">
    <mxGraphModel dx="1038" dy="556" grid="1" gridSize="10" guides="1" tooltips="1" connect="1" arrows="1" fold="1" page="1" pageScale="1" pageWidth="2000" pageHeight="1500" math="0" shadow="0">
      <root>
        <mxCell id="0" />
        <mxCell id="1" parent="0" />
        <mxCell id="DPNWvPaQhvwjfFsDtEV3-1" value="Monitoring" style="rounded=0;whiteSpace=wrap;html=1;" parent="1" vertex="1">
          <mxGeometry x="250" y="80" width="700" height="60" as="geometry" />
        </mxCell>
        <mxCell id="DPNWvPaQhvwjfFsDtEV3-2" value="25YEP Indicators" style="rounded=1;whiteSpace=wrap;html=1;" parent="1" vertex="1">
          <mxGeometry x="490" y="240" width="120" height="60" as="geometry" />
        </mxCell>
        <mxCell id="DPNWvPaQhvwjfFsDtEV3-3" value="UKMS Indicators" style="rounded=1;whiteSpace=wrap;html=1;" parent="1" vertex="1">
          <mxGeometry x="660" y="240" width="120" height="60" as="geometry" />
        </mxCell>
        <mxCell id="DPNWvPaQhvwjfFsDtEV3-4" value="OSPAR Indicators (?)" style="rounded=1;whiteSpace=wrap;html=1;" parent="1" vertex="1">
          <mxGeometry x="830" y="240" width="120" height="60" as="geometry" />
        </mxCell>
        <mxCell id="DPNWvPaQhvwjfFsDtEV3-5" value="Policy Informing" style="shape=parallelogram;perimeter=parallelogramPerimeter;whiteSpace=wrap;html=1;fixedSize=1;" parent="1" vertex="1">
          <mxGeometry x="250" y="350" width="120" height="60" as="geometry" />
        </mxCell>
        <mxCell id="DPNWvPaQhvwjfFsDtEV3-7" value="Short-term" style="swimlane;" parent="1" vertex="1">
          <mxGeometry x="230" y="199" width="190" height="310" as="geometry" />
        </mxCell>
        <mxCell id="DPNWvPaQhvwjfFsDtEV3-8" value="Long-term" style="swimlane;" parent="1" vertex="1">
          <mxGeometry x="460" y="199" width="510" height="310" as="geometry" />
        </mxCell>
      </root>
    </mxGraphModel>
  </diagram>
  <diagram id="lLmKzoorJ688j6w5NjSV" name="MEDIN">
    <mxGraphModel dx="1298" dy="695" grid="1" gridSize="10" guides="1" tooltips="1" connect="1" arrows="1" fold="1" page="1" pageScale="1" pageWidth="2000" pageHeight="1500" math="0" shadow="0">
      <root>
        <mxCell id="0" />
        <mxCell id="1" parent="0" />
        <mxCell id="fEKRDEHJ364gQb2hQpL--2" value="DASSH (Flora, Fauna, Habitat)" style="rounded=1;whiteSpace=wrap;html=1;fillColor=#dae8fc;strokeColor=#6c8ebf;" parent="1" vertex="1">
          <mxGeometry x="320" y="240" width="120" height="60" as="geometry" />
        </mxCell>
        <mxCell id="fEKRDEHJ364gQb2hQpL--3" value="BODC (Water Column Oceanography)" style="rounded=1;whiteSpace=wrap;html=1;fillColor=#dae8fc;strokeColor=#6c8ebf;" parent="1" vertex="1">
          <mxGeometry x="380" y="620" width="120" height="60" as="geometry" />
        </mxCell>
        <mxCell id="fEKRDEHJ364gQb2hQpL--4" value="BGS (Geology and Geophysics)" style="rounded=1;whiteSpace=wrap;html=1;fillColor=#dae8fc;strokeColor=#6c8ebf;" parent="1" vertex="1">
          <mxGeometry x="290" y="480" width="120" height="60" as="geometry" />
        </mxCell>
        <mxCell id="fEKRDEHJ364gQb2hQpL--5" value="Cefas (Fisheries) FishDAC" style="rounded=1;whiteSpace=wrap;html=1;fillColor=#dae8fc;strokeColor=#6c8ebf;" parent="1" vertex="1">
          <mxGeometry x="560" y="290" width="120" height="60" as="geometry" />
        </mxCell>
        <mxCell id="fEKRDEHJ364gQb2hQpL--6" value="Marine Scotland (Fisheries)" style="rounded=1;whiteSpace=wrap;html=1;fillColor=#dae8fc;strokeColor=#6c8ebf;" parent="1" vertex="1">
          <mxGeometry x="560" y="230" width="120" height="60" as="geometry" />
        </mxCell>
        <mxCell id="fEKRDEHJ364gQb2hQpL--7" value="DASSH (Fisheries)" style="rounded=1;whiteSpace=wrap;html=1;fillColor=#dae8fc;strokeColor=#6c8ebf;" parent="1" vertex="1">
          <mxGeometry x="560" y="170" width="120" height="60" as="geometry" />
        </mxCell>
        <mxCell id="fEKRDEHJ364gQb2hQpL--8" value="ADS (Historic Environment)" style="rounded=1;whiteSpace=wrap;html=1;fillColor=#dae8fc;strokeColor=#6c8ebf;" parent="1" vertex="1">
          <mxGeometry x="780" y="370" width="120" height="60" as="geometry" />
        </mxCell>
        <mxCell id="fEKRDEHJ364gQb2hQpL--9" value="HES (Historic Environment)" style="rounded=1;whiteSpace=wrap;html=1;fillColor=#dae8fc;strokeColor=#6c8ebf;" parent="1" vertex="1">
          <mxGeometry x="780" y="310" width="120" height="60" as="geometry" />
        </mxCell>
        <mxCell id="fEKRDEHJ364gQb2hQpL--10" value="RCAHMW (Historic Environment)" style="rounded=1;whiteSpace=wrap;html=1;fillColor=#dae8fc;strokeColor=#6c8ebf;" parent="1" vertex="1">
          <mxGeometry x="780" y="250" width="120" height="60" as="geometry" />
        </mxCell>
        <mxCell id="fEKRDEHJ364gQb2hQpL--11" value="Met Office (Meteorology)" style="rounded=1;whiteSpace=wrap;html=1;fillColor=#dae8fc;strokeColor=#6c8ebf;" parent="1" vertex="1">
          <mxGeometry x="800" y="500" width="120" height="60" as="geometry" />
        </mxCell>
        <mxCell id="fEKRDEHJ364gQb2hQpL--12" value="Bathymetry (UKHO)" style="rounded=1;whiteSpace=wrap;html=1;fillColor=#dae8fc;strokeColor=#6c8ebf;" parent="1" vertex="1">
          <mxGeometry x="700" y="640" width="120" height="60" as="geometry" />
        </mxCell>
        <mxCell id="fEKRDEHJ364gQb2hQpL--14" value="MEDIN&lt;br&gt;(MEDIN Portal holds metadata only, and links to DAC)" style="shape=hexagon;perimeter=hexagonPerimeter2;whiteSpace=wrap;html=1;fixedSize=1;" parent="1" vertex="1">
          <mxGeometry x="560" y="480" width="120" height="80" as="geometry" />
        </mxCell>
        <mxCell id="fEKRDEHJ364gQb2hQpL--15" value="DAC (Data Archive Centre)" style="rounded=1;whiteSpace=wrap;html=1;fillColor=#dae8fc;strokeColor=#6c8ebf;" parent="1" vertex="1">
          <mxGeometry x="340" y="100" width="120" height="60" as="geometry" />
        </mxCell>
        <mxCell id="fEKRDEHJ364gQb2hQpL--16" value="" style="endArrow=classic;html=1;rounded=0;exitX=1;exitY=0.5;exitDx=0;exitDy=0;entryX=0.15;entryY=0.988;entryDx=0;entryDy=0;entryPerimeter=0;" parent="1" source="fEKRDEHJ364gQb2hQpL--3" target="fEKRDEHJ364gQb2hQpL--14" edge="1">
          <mxGeometry width="50" height="50" relative="1" as="geometry">
            <mxPoint x="510" y="570" as="sourcePoint" />
            <mxPoint x="560" y="520" as="targetPoint" />
          </mxGeometry>
        </mxCell>
        <mxCell id="fEKRDEHJ364gQb2hQpL--17" value="" style="endArrow=classic;html=1;rounded=0;exitX=1.033;exitY=0.633;exitDx=0;exitDy=0;exitPerimeter=0;entryX=0;entryY=0.5;entryDx=0;entryDy=0;" parent="1" source="fEKRDEHJ364gQb2hQpL--4" target="fEKRDEHJ364gQb2hQpL--14" edge="1">
          <mxGeometry width="50" height="50" relative="1" as="geometry">
            <mxPoint x="410" y="540" as="sourcePoint" />
            <mxPoint x="570" y="530" as="targetPoint" />
          </mxGeometry>
        </mxCell>
        <mxCell id="fEKRDEHJ364gQb2hQpL--18" value="" style="endArrow=classic;html=1;rounded=0;exitX=1;exitY=0.5;exitDx=0;exitDy=0;entryX=0.167;entryY=0;entryDx=0;entryDy=0;entryPerimeter=0;" parent="1" source="fEKRDEHJ364gQb2hQpL--2" target="fEKRDEHJ364gQb2hQpL--14" edge="1">
          <mxGeometry width="50" height="50" relative="1" as="geometry">
            <mxPoint x="420" y="550" as="sourcePoint" />
            <mxPoint x="580" y="540" as="targetPoint" />
          </mxGeometry>
        </mxCell>
        <mxCell id="fEKRDEHJ364gQb2hQpL--19" value="" style="endArrow=classic;html=1;rounded=0;exitX=0.5;exitY=1;exitDx=0;exitDy=0;" parent="1" source="fEKRDEHJ364gQb2hQpL--5" target="fEKRDEHJ364gQb2hQpL--14" edge="1">
          <mxGeometry width="50" height="50" relative="1" as="geometry">
            <mxPoint x="430" y="560" as="sourcePoint" />
            <mxPoint x="590" y="550" as="targetPoint" />
          </mxGeometry>
        </mxCell>
        <mxCell id="fEKRDEHJ364gQb2hQpL--20" value="" style="endArrow=classic;html=1;rounded=0;exitX=0;exitY=1;exitDx=0;exitDy=0;" parent="1" source="fEKRDEHJ364gQb2hQpL--8" edge="1">
          <mxGeometry width="50" height="50" relative="1" as="geometry">
            <mxPoint x="440" y="570" as="sourcePoint" />
            <mxPoint x="660" y="480" as="targetPoint" />
          </mxGeometry>
        </mxCell>
        <mxCell id="fEKRDEHJ364gQb2hQpL--21" value="" style="endArrow=classic;html=1;rounded=0;exitX=0;exitY=0.5;exitDx=0;exitDy=0;entryX=1;entryY=0.5;entryDx=0;entryDy=0;" parent="1" source="fEKRDEHJ364gQb2hQpL--11" target="fEKRDEHJ364gQb2hQpL--14" edge="1">
          <mxGeometry width="50" height="50" relative="1" as="geometry">
            <mxPoint x="450" y="580" as="sourcePoint" />
            <mxPoint x="610" y="570" as="targetPoint" />
          </mxGeometry>
        </mxCell>
        <mxCell id="fEKRDEHJ364gQb2hQpL--22" value="" style="endArrow=classic;html=1;rounded=0;exitX=0;exitY=0;exitDx=0;exitDy=0;entryX=0.817;entryY=1;entryDx=0;entryDy=0;entryPerimeter=0;" parent="1" source="fEKRDEHJ364gQb2hQpL--12" target="fEKRDEHJ364gQb2hQpL--14" edge="1">
          <mxGeometry width="50" height="50" relative="1" as="geometry">
            <mxPoint x="460" y="590" as="sourcePoint" />
            <mxPoint x="620" y="580" as="targetPoint" />
          </mxGeometry>
        </mxCell>
      </root>
    </mxGraphModel>
  </diagram>
</mxfile>
